<?xml version="1.0" encoding="UTF-8" standalone="no"?>
<!-- Created with Inkscape (http://www.inkscape.org/) -->

<svg
   width="76.226517mm"
   height="57.418648mm"
   viewBox="0 0 76.226517 57.418648"
   version="1.1"
   id="svg1"
   xmlns:inkscape="http://www.inkscape.org/namespaces/inkscape"
   xmlns:sodipodi="http://sodipodi.sourceforge.net/DTD/sodipodi-0.dtd"
   xmlns:xlink="http://www.w3.org/1999/xlink"
   xmlns="http://www.w3.org/2000/svg"
   xmlns:svg="http://www.w3.org/2000/svg">
  <sodipodi:namedview
     id="namedview1"
     pagecolor="#505050"
     bordercolor="#eeeeee"
     borderopacity="1"
     inkscape:showpageshadow="0"
     inkscape:pageopacity="0"
     inkscape:pagecheckerboard="0"
     inkscape:deskcolor="#505050"
     inkscape:document-units="mm"
     showgrid="false">
    <inkscape:grid
       id="grid1"
       units="mm"
       originx="-72.678457"
       originy="-125.24212"
       spacingx="0.99999998"
       spacingy="1"
       empcolor="#0099e5"
       empopacity="0.30196078"
       color="#0099e5"
       opacity="0.14901961"
       empspacing="5"
       enabled="true"
       visible="false" />
    <inkscape:page
       x="0"
       y="0"
       width="76.226517"
       height="57.418648"
       id="page2"
       margin="0"
       bleed="0" />
  </sodipodi:namedview>
  <defs
     id="defs1">
    <linearGradient
       id="linearGradient1"
       inkscape:collect="always">
      <stop
         style="stop-color:#0084ff;stop-opacity:1;"
         offset="0"
         id="stop2" />
      <stop
         style="stop-color:#00abff;stop-opacity:1;"
         offset="1"
         id="stop1" />
    </linearGradient>
    <linearGradient
       inkscape:collect="always"
       xlink:href="#linearGradient11"
       id="linearGradient12"
       x1="11.347038"
       y1="59.788242"
       x2="86.676468"
       y2="59.788242"
       gradientUnits="userSpaceOnUse" />
    <linearGradient
       id="linearGradient11"
       inkscape:collect="always">
      <stop
         style="stop-color:#ffffff;stop-opacity:1;"
         offset="0"
         id="stop11" />
      <stop
         style="stop-color:#e3e3e3;stop-opacity:1;"
         offset="0.5"
         id="stop13" />
      <stop
         style="stop-color:#ececec;stop-opacity:1;"
         offset="1"
         id="stop12" />
    </linearGradient>
    <linearGradient
       inkscape:collect="always"
       xlink:href="#linearGradient43"
       id="linearGradient41"
       x1="59.430088"
       y1="96.11998"
       x2="38.593437"
       y2="23.453943"
       gradientUnits="userSpaceOnUse" />
    <linearGradient
       id="linearGradient43"
       inkscape:collect="always">
      <stop
         style="stop-color:#696969;stop-opacity:1;"
         offset="0.00181488"
         id="stop41" />
      <stop
         style="stop-color:#e3e3e3;stop-opacity:1;"
         offset="0.5"
         id="stop42" />
      <stop
         style="stop-color:#ececec;stop-opacity:1;"
         offset="1"
         id="stop43" />
    </linearGradient>
    <filter
       style="color-interpolation-filters:sRGB"
       inkscape:label="Drop Shadow"
       id="filter11"
       x="-0.018422645"
       y="-0.030869493"
       width="1.0451407"
       height="1.0755534">
      <feFlood
         result="flood"
         in="SourceGraphic"
         flood-opacity="0.498039"
         flood-color="rgb(0,0,0)"
         id="feFlood10" />
      <feGaussianBlur
         result="blur"
         in="SourceGraphic"
         stdDeviation="0.500000"
         id="feGaussianBlur10" />
      <feOffset
         result="offset"
         in="blur"
         dx="0.600000"
         dy="0.600000"
         id="feOffset10" />
      <feComposite
         result="comp1"
         operator="in"
         in="flood"
         in2="offset"
         id="feComposite10" />
      <feComposite
         result="comp2"
         operator="over"
         in="SourceGraphic"
         in2="comp1"
         id="feComposite11" />
    </filter>
    <inkscape:path-effect
       effect="fillet_chamfer"
       id="path-effect3"
       is_visible="true"
       lpeversion="1"
       nodesatellites_param="F,0,0,1,0,5.524235,0,1 @ F,0,0,1,0,3.7816537,0,1 @ F,0,0,1,0,0,0,1 @ F,0,0,1,0,0,0,1 @ F,0,0,1,0,0,0,1 @ F,0,0,1,0,0,0,1 @ F,0,0,1,0,0,0,1 @ F,0,0,1,0,0,0,1"
       radius="0"
       unit="px"
       method="auto"
       mode="F"
       chamfer_steps="1"
       flexible="false"
       use_knot_distance="true"
       apply_no_radius="true"
       apply_with_radius="true"
       only_selected="false"
       hide_knots="false" />
    <linearGradient
       inkscape:collect="always"
       xlink:href="#linearGradient75"
       id="linearGradient76"
       x1="-4.6199021"
       y1="67.898453"
       x2="98.844124"
       y2="90.144135"
       gradientUnits="userSpaceOnUse"
       gradientTransform="translate(61.463919,88.713032)" />
    <linearGradient
       id="linearGradient75"
       inkscape:collect="always">
      <stop
         style="stop-color:#8f8f8f;stop-opacity:1;"
         offset="0"
         id="stop75" />
      <stop
         style="stop-color:#ffffff;stop-opacity:1;"
         offset="1"
         id="stop76" />
    </linearGradient>
    <linearGradient
       inkscape:collect="always"
       xlink:href="#linearGradient86"
       id="linearGradient87"
       x1="49.352394"
       y1="29.538078"
       x2="49.352394"
       y2="105.38624"
       gradientUnits="userSpaceOnUse"
       gradientTransform="translate(61.463919,88.713032)" />
    <linearGradient
       id="linearGradient86"
       inkscape:collect="always">
      <stop
         style="stop-color:#b2b2b2;stop-opacity:1;"
         offset="0"
         id="stop86" />
      <stop
         style="stop-color:#f7f7f7;stop-opacity:1;"
         offset="1"
         id="stop87" />
    </linearGradient>
    <filter
       style="color-interpolation-filters:sRGB"
       inkscape:label="Drop Shadow"
       id="filter86"
       x="-0.039031187"
       y="-0.097661697"
       width="1.0752296"
       height="1.1916622">
      <feFlood
         result="flood"
         in="SourceGraphic"
         flood-opacity="0.450980"
         flood-color="rgb(31,31,31)"
         id="feFlood85" />
      <feGaussianBlur
         result="blur"
         in="SourceGraphic"
         stdDeviation="1.000000"
         id="feGaussianBlur85" />
      <feOffset
         result="offset"
         in="blur"
         dx="-0.200000"
         dy="-0.100000"
         id="feOffset85" />
      <feComposite
         result="comp1"
         operator="in"
         in="flood"
         in2="offset"
         id="feComposite85" />
      <feComposite
         result="comp2"
         operator="over"
         in="SourceGraphic"
         in2="comp1"
         id="feComposite86" />
    </filter>
    <linearGradient
       inkscape:collect="always"
       xlink:href="#linearGradient1"
       id="linearGradient2-2"
       x1="75"
       y1="140.04596"
       x2="135"
       y2="140.04596"
       gradientUnits="userSpaceOnUse"
       gradientTransform="matrix(0.19143799,0,0,0.19143799,107.27933,145.73594)" />
    <filter
       style="color-interpolation-filters:sRGB"
       inkscape:label="Drop Shadow"
       id="filter21-1"
       x="-0.29251322"
       y="-0.10982194"
       width="1.6894955"
       height="1.258866">
      <feFlood
         result="flood"
         in="SourceGraphic"
         flood-opacity="0.764706"
         flood-color="rgb(78,78,78)"
         id="feFlood20-1" />
      <feGaussianBlur
         result="blur"
         in="SourceGraphic"
         stdDeviation="0.700000"
         id="feGaussianBlur20-5" />
      <feOffset
         result="offset"
         in="blur"
         dx="0.600000"
         dy="0.600000"
         id="feOffset20-2" />
      <feComposite
         result="comp1"
         operator="in"
         in="flood"
         in2="offset"
         id="feComposite20-7" />
      <feComposite
         result="comp2"
         operator="over"
         in="SourceGraphic"
         in2="comp1"
         id="feComposite21-6" />
    </filter>
    <radialGradient
       inkscape:collect="always"
       xlink:href="#linearGradient23"
       id="radialGradient24"
       cx="93.295601"
       cy="126.23416"
       fx="93.295601"
       fy="126.23416"
       r="34.228825"
       gradientUnits="userSpaceOnUse"
       gradientTransform="matrix(0.27078589,0,0,0.27078589,94.573057,125.66166)" />
    <linearGradient
       id="linearGradient23"
       inkscape:collect="always">
      <stop
         style="stop-color:#c5ffff;stop-opacity:1;"
         offset="0.00169492"
         id="stop23" />
      <stop
         style="stop-color:#80f7f7;stop-opacity:1;"
         offset="1"
         id="stop24" />
    </linearGradient>
    <filter
       style="color-interpolation-filters:sRGB"
       inkscape:label="Drop Shadow"
       id="filter41"
       x="-0.18125765"
       y="-0.090630772"
       width="1.4272502"
       height="1.2136297">
      <feFlood
         result="flood"
         in="SourceGraphic"
         flood-opacity="0.764706"
         flood-color="rgb(78,78,78)"
         id="feFlood40" />
      <feGaussianBlur
         result="blur"
         in="SourceGraphic"
         stdDeviation="0.700000"
         id="feGaussianBlur40" />
      <feOffset
         result="offset"
         in="blur"
         dx="0.600000"
         dy="0.600000"
         id="feOffset40" />
      <feComposite
         result="comp1"
         operator="in"
         in="flood"
         in2="offset"
         id="feComposite40" />
      <feComposite
         result="comp2"
         operator="over"
         in="SourceGraphic"
         in2="comp1"
         id="feComposite41" />
    </filter>
  </defs>
  <g
     inkscape:label="Layer 1"
     inkscape:groupmode="layer"
     id="layer1"
     style="display:inline"
     transform="translate(-72.678459,-125.24212)">
    <g
       id="g5"
       inkscape:export-filename="extreme-rain.svg"
       inkscape:export-xdpi="96"
       inkscape:export-ydpi="96"
       style="display:inline">
      <path
         id="path2"
         style="display:inline;fill:url(#linearGradient12);stroke:url(#linearGradient41);stroke-width:0.264999;stroke-opacity:1;filter:url(#filter11)"
         d="m 57.750428,38.579961 c -6.988808,1.718521 -10.25228,5.637797 -12.40423,8.973719 -1.131734,1.754396 -3.311163,2.044999 -5.286042,1.423781 -3.157972,-0.993371 -7.384412,-1.094669 -10.972009,-1.09464 -9.135373,7.2e-5 -16.541037,7.553058 -16.541109,16.688431 7.1e-5,9.135373 7.405736,16.541038 16.541109,16.54111 h 16.784907 17.335491 c 11.966869,6e-6 21.667934,-9.701059 21.667928,-21.667928 5e-6,-9.985836 -7.249643,-18.886789 -16.190482,-21.14886 -2.945842,-0.745311 -7.976782,-0.443167 -10.935563,0.284387 z"
         sodipodi:nodetypes="scsccccss"
         inkscape:path-effect="#path-effect3"
         inkscape:original-d="M 63.208545,37.776506 C 49.179136,38.658641 46.037926,46.69205 43.354261,50.766503 40.575783,48.087397 34.186804,47.88278 29.088147,47.882821 c -9.135373,7.2e-5 -16.541037,7.553058 -16.541109,16.688431 7.1e-5,9.135373 7.405736,16.541038 16.541109,16.54111 h 16.784907 17.335491 c 11.966869,6e-6 21.667934,-9.701059 21.667928,-21.667928 6e-6,-11.966869 -10.411396,-22.375711 -21.667928,-21.667928 z"
         transform="translate(61.463919,88.713032)" />
      <path
         id="path43"
         style="display:inline;fill:url(#linearGradient76);stroke:url(#linearGradient87);stroke-width:0.329178;filter:url(#filter86)"
         d="m 107.0384,154.69248 c -7.61901,7.22521 -36.861805,-5.74145 -30.699566,7.0579 1.768973,3.67427 7.445611,7.85059 11.650233,7.87763 l 30.695213,0.19738 c 3.78486,0.0243 8.30976,0.31906 12.48198,-0.98989 7.85548,-2.4645 14.75436,-8.81142 15.17413,-20.67804 5.5e-4,-9.14852 -24.93187,-7.09234 -39.30199,6.53502 z"
         sodipodi:nodetypes="ssssscs" />
    </g>
  </g>
  <rect
     style="fill:#ccffff;fill-opacity:1;stroke-width:0.270999;stroke-dasharray:none"
     id="rect22"
     width="3.8146973e-06"
     height="0.86184472"
     x="55.101421"
     y="33.160675"
     ry="1.9073486e-06" />
  <g
     id="g39"
     transform="matrix(0.84778256,0,0,0.84778256,-49.768729,-92.964622)">
    <g
       id="g41"
       transform="matrix(1.2091991,0,0,1.2091991,-25.490432,-30.445675)">
      <path
         id="path1-4"
         style="display:inline;fill:url(#linearGradient2-2);stroke:none;stroke-width:0.165068;stroke-dasharray:none;stroke-opacity:0;filter:url(#filter21-1)"
         d="m 127.3804,164.89733 c -2.48869,1.89678 -5.74333,6.38232 -5.74333,9.55416 0,3.17185 2.57148,5.74333 5.74333,5.74333 z"
         transform="matrix(1.2116221,0,0,1.2116221,-34.499787,-49.21651)" />
      <path
         id="path23"
         style="fill:url(#radialGradient24);stroke:none;stroke-width:0.2;stroke-dasharray:none;stroke-opacity:0;filter:url(#filter41)"
         inkscape:label="flake"
         d="m 119.83711,150.57675 v 1.4117 c 0.31249,0.004 0.62471,0.007 0.93604,-7.8e-4 -0.31133,0.008 -0.62354,0.005 -0.93604,0.002 v 7.83114 c 0.003,2e-5 0.006,-1e-5 0.009,0 0.005,0.005 0.009,0.009 0.0141,0.0142 -1.3e-4,0.006 -4e-4,0.0134 -4.1e-4,0.0202 0.0101,-0.0101 0.0214,-0.0185 0.0319,-0.0279 -0.0155,0.0138 -0.0312,0.0274 -0.046,0.0419 -0.003,-6e-5 -0.005,-3.5e-4 -0.009,-4e-4 v 9.24365 c 0.52142,0.0109 0.99944,-0.418 1.04092,-0.93925 7.3e-4,-0.15583 0.002,-0.31137 0.002,-0.4672 0.29298,-0.004 0.58485,-0.0163 0.8755,-0.0437 0.71591,-0.51489 0.0239,-1.00426 -0.57734,-0.99936 -0.0859,7.2e-4 -0.16991,0.0115 -0.24772,0.0339 -0.0159,2.9e-4 -0.0317,7.8e-4 -0.0476,7.8e-4 0.002,-1.44096 -3e-5,-2.88242 -4e-4,-4.32347 1.01504,1.02086 2.03437,2.0376 3.05095,3.05702 -0.20335,0.20959 -0.40083,0.42411 -0.58783,0.64714 -0.0768,0.18188 -0.0318,0.4065 0.11013,0.54427 0.47999,0.4001 0.85121,-0.14014 1.18215,-0.46802 0.43303,0.50771 1.21247,0.81523 1.74455,0.25096 0.37687,-0.36052 0.41264,-1.00168 0.0739,-1.40001 -0.10955,-0.11096 -0.21913,-0.22201 -0.32883,-0.33286 0.20444,-0.20983 0.40294,-0.42462 0.58945,-0.64915 0.0768,-0.46615 -0.12754,-0.64153 -0.39861,-0.63827 -0.3072,0.003 -0.70051,0.23695 -0.86783,0.5374 -0.011,0.0115 -0.0218,0.0233 -0.0326,0.0347 -1.01778,-1.02408 -2.03974,-2.04478 -3.05983,-3.06668 1.44249,0.002 2.88537,-0.002 4.3279,-4.3e-4 0.005,0.292 0.0166,0.58319 0.0424,0.8731 0.0746,0.18282 0.26542,0.30979 0.46318,0.30662 0.6202,-0.0571 0.4995,-0.70207 0.50027,-1.1676 0.66599,0.0534 1.43706,-0.28143 1.41333,-1.05787 0.0109,-0.52142 -0.41802,-0.99941 -0.93926,-1.04093 -0.15593,-7.2e-4 -0.31168,-0.002 -0.4676,-0.002 0.009,0.65882 -0.0206,1.32168 -0.005,1.97976 -0.0239,-0.95073 0.0494,-1.91137 -0.0391,-2.85567 -0.14711,-0.20455 -0.29243,-0.29418 -0.42445,-0.3038 -0.0124,-7.2e-4 -0.0246,-5.8e-4 -0.0367,-4e-4 -0.3763,0.0147 -0.634,0.67745 -0.50473,1.12968 2.8e-4,0.0159 7.9e-4,0.0318 7.9e-4,0.0476 -1.441,-0.002 -2.88197,-3.4e-4 -4.32307,0 1.0208,-1.01507 2.03719,-2.03398 3.05659,-3.05055 0.20969,0.20332 0.4241,0.40082 0.64716,0.58783 0.18187,0.0768 0.40689,0.0318 0.54467,-0.11014 0.4001,-0.47997 -0.14052,-0.85119 -0.46842,-1.18213 0.50772,-0.43303 0.81564,-1.21287 0.25136,-1.74497 -0.2028,-0.21197 -0.49466,-0.31607 -0.7819,-0.30622 -0.22341,0.008 -0.44424,0.0843 -0.6185,0.2324 -0.111,0.10958 -0.2216,0.2195 -0.33246,0.32921 0.47194,0.4598 0.91872,0.95018 1.39516,1.40445 -0.6883,-0.65628 -1.31514,-1.38789 -2.04473,-1.99389 -0.0621,-0.0102 -0.11898,-0.0154 -0.17108,-0.0162 -0.78127,-0.0112 -0.45994,0.98691 0.0702,1.28221 0.0116,0.011 0.0228,0.0224 0.0343,0.0334 -1.02399,1.01764 -2.04448,2.03907 -3.06629,3.05903 0.002,-1.44249 -4.1e-4,-2.88497 -4.1e-4,-4.32751 0.292,-0.005 0.58318,-0.0169 0.8731,-0.0428 0.18279,-0.0746 0.30977,-0.26543 0.30662,-0.46319 -0.0388,-0.42185 -0.35135,-0.5003 -0.69355,-0.50755 -0.16233,-0.003 -0.32421,0.006 -0.47407,0.006 0.0526,-0.66516 -0.28161,-1.43431 -1.05626,-1.4117 z m 0.0428,9.06532 c -0.003,0.0181 -0.006,0.0363 -0.009,0.0546 0.002,-0.0183 0.005,-0.0366 0.009,-0.0546 z m -0.0133,0.0985 c -0.002,0.0237 -0.005,0.0472 -0.006,0.071 2.8e-4,-0.0101 7.8e-4,-0.019 0.002,-0.0286 7.3e-4,-0.0141 0.002,-0.0283 0.005,-0.0424 z" />
    </g>
  </g>
</svg>
