<?xml version="1.0" encoding="UTF-8" standalone="no"?>
<!-- Created with Inkscape (http://www.inkscape.org/) -->

<svg
   width="76.226517mm"
   height="52.832268mm"
   viewBox="0 0 76.226517 52.832268"
   version="1.1"
   id="svg1"
   inkscape:version="1.4.2 (f4327f4, 2025-05-13)"
   sodipodi:docname="snowflake.svg"
   xmlns:inkscape="http://www.inkscape.org/namespaces/inkscape"
   xmlns:sodipodi="http://sodipodi.sourceforge.net/DTD/sodipodi-0.dtd"
   xmlns:xlink="http://www.w3.org/1999/xlink"
   xmlns="http://www.w3.org/2000/svg"
   xmlns:svg="http://www.w3.org/2000/svg">
  <sodipodi:namedview
     id="namedview1"
     pagecolor="#505050"
     bordercolor="#eeeeee"
     borderopacity="1"
     inkscape:showpageshadow="0"
     inkscape:pageopacity="0"
     inkscape:pagecheckerboard="0"
     inkscape:deskcolor="#505050"
     inkscape:document-units="mm"
     inkscape:zoom="1.0167041"
     inkscape:cx="256.71186"
     inkscape:cy="460.80271"
     inkscape:window-width="1920"
     inkscape:window-height="1009"
     inkscape:window-x="-8"
     inkscape:window-y="-8"
     inkscape:window-maximized="1"
     inkscape:current-layer="layer1">
    <inkscape:page
       x="0"
       y="0"
       width="76.226517"
       height="52.832268"
       id="page2"
       margin="0"
       bleed="0" />
  </sodipodi:namedview>
  <defs
     id="defs1">
    <linearGradient
       id="linearGradient23"
       inkscape:collect="always">
      <stop
         style="stop-color:#c5ffff;stop-opacity:1;"
         offset="0.00169492"
         id="stop23" />
      <stop
         style="stop-color:#80f7f7;stop-opacity:1;"
         offset="1"
         id="stop24" />
    </linearGradient>
    <radialGradient
       inkscape:collect="always"
       xlink:href="#linearGradient23"
       id="radialGradient24"
       cx="93.295601"
       cy="126.23416"
       fx="93.295601"
       fy="126.23416"
       r="34.228825"
       gradientUnits="userSpaceOnUse"
       gradientTransform="matrix(0.2183072,0,0,0.2183072,70.035788,60.993776)" />
    <linearGradient
       inkscape:collect="always"
       xlink:href="#linearGradient11"
       id="linearGradient12"
       x1="11.347038"
       y1="59.788242"
       x2="86.676468"
       y2="59.788242"
       gradientUnits="userSpaceOnUse" />
    <linearGradient
       id="linearGradient11"
       inkscape:collect="always">
      <stop
         style="stop-color:#ffffff;stop-opacity:1;"
         offset="0"
         id="stop11" />
      <stop
         style="stop-color:#e3e3e3;stop-opacity:1;"
         offset="0.5"
         id="stop13" />
      <stop
         style="stop-color:#ececec;stop-opacity:1;"
         offset="1"
         id="stop12" />
    </linearGradient>
    <linearGradient
       inkscape:collect="always"
       xlink:href="#linearGradient43"
       id="linearGradient41"
       x1="59.430088"
       y1="96.11998"
       x2="38.593437"
       y2="23.453943"
       gradientUnits="userSpaceOnUse" />
    <linearGradient
       id="linearGradient43"
       inkscape:collect="always">
      <stop
         style="stop-color:#696969;stop-opacity:1;"
         offset="0.00181488"
         id="stop41" />
      <stop
         style="stop-color:#e3e3e3;stop-opacity:1;"
         offset="0.5"
         id="stop42" />
      <stop
         style="stop-color:#ececec;stop-opacity:1;"
         offset="1"
         id="stop43" />
    </linearGradient>
    <filter
       style="color-interpolation-filters:sRGB"
       inkscape:label="Drop Shadow"
       id="filter11"
       x="-0.018422645"
       y="-0.030869493"
       width="1.0451407"
       height="1.0755534">
      <feFlood
         result="flood"
         in="SourceGraphic"
         flood-opacity="0.498039"
         flood-color="rgb(0,0,0)"
         id="feFlood10" />
      <feGaussianBlur
         result="blur"
         in="SourceGraphic"
         stdDeviation="0.500000"
         id="feGaussianBlur10" />
      <feOffset
         result="offset"
         in="blur"
         dx="0.600000"
         dy="0.600000"
         id="feOffset10" />
      <feComposite
         result="comp1"
         operator="in"
         in="flood"
         in2="offset"
         id="feComposite10" />
      <feComposite
         result="comp2"
         operator="over"
         in="SourceGraphic"
         in2="comp1"
         id="feComposite11" />
    </filter>
    <inkscape:path-effect
       effect="fillet_chamfer"
       id="path-effect3"
       is_visible="true"
       lpeversion="1"
       nodesatellites_param="F,0,0,1,0,5.524235,0,1 @ F,0,0,1,0,3.7816537,0,1 @ F,0,0,1,0,0,0,1 @ F,0,0,1,0,0,0,1 @ F,0,0,1,0,0,0,1 @ F,0,0,1,0,0,0,1 @ F,0,0,1,0,0,0,1 @ F,0,0,1,0,0,0,1"
       radius="0"
       unit="px"
       method="auto"
       mode="F"
       chamfer_steps="1"
       flexible="false"
       use_knot_distance="true"
       apply_no_radius="true"
       apply_with_radius="true"
       only_selected="false"
       hide_knots="false" />
    <linearGradient
       inkscape:collect="always"
       xlink:href="#linearGradient75"
       id="linearGradient76"
       x1="-4.6199021"
       y1="67.898453"
       x2="98.844124"
       y2="90.144135"
       gradientUnits="userSpaceOnUse"
       gradientTransform="translate(59.274471,8.2825739)" />
    <linearGradient
       id="linearGradient75"
       inkscape:collect="always">
      <stop
         style="stop-color:#8f8f8f;stop-opacity:1;"
         offset="0"
         id="stop75" />
      <stop
         style="stop-color:#ffffff;stop-opacity:1;"
         offset="1"
         id="stop76" />
    </linearGradient>
    <linearGradient
       inkscape:collect="always"
       xlink:href="#linearGradient86"
       id="linearGradient87"
       x1="49.352394"
       y1="29.538078"
       x2="49.352394"
       y2="105.38624"
       gradientUnits="userSpaceOnUse"
       gradientTransform="translate(59.274471,8.2825739)" />
    <linearGradient
       id="linearGradient86"
       inkscape:collect="always">
      <stop
         style="stop-color:#b2b2b2;stop-opacity:1;"
         offset="0"
         id="stop86" />
      <stop
         style="stop-color:#f7f7f7;stop-opacity:1;"
         offset="1"
         id="stop87" />
    </linearGradient>
    <filter
       style="color-interpolation-filters:sRGB"
       inkscape:label="Drop Shadow"
       id="filter86"
       x="-0.03903119"
       y="-0.097661688"
       width="1.0752296"
       height="1.1916622">
      <feFlood
         result="flood"
         in="SourceGraphic"
         flood-opacity="0.450980"
         flood-color="rgb(31,31,31)"
         id="feFlood85" />
      <feGaussianBlur
         result="blur"
         in="SourceGraphic"
         stdDeviation="1.000000"
         id="feGaussianBlur85" />
      <feOffset
         result="offset"
         in="blur"
         dx="-0.200000"
         dy="-0.100000"
         id="feOffset85" />
      <feComposite
         result="comp1"
         operator="in"
         in="flood"
         in2="offset"
         id="feComposite85" />
      <feComposite
         result="comp2"
         operator="over"
         in="SourceGraphic"
         in2="comp1"
         id="feComposite86" />
    </filter>
    <filter
       style="color-interpolation-filters:sRGB"
       inkscape:label="Drop Shadow"
       id="filter51"
       x="-0.12847071"
       y="-0.12847251"
       width="1.2970885"
       height="1.3104752">
      <feFlood
         result="flood"
         in="SourceGraphic"
         flood-opacity="0.764706"
         flood-color="rgb(78,78,78)"
         id="feFlood50" />
      <feGaussianBlur
         result="blur"
         in="SourceGraphic"
         stdDeviation="0.800000"
         id="feGaussianBlur50" />
      <feOffset
         result="offset"
         in="blur"
         dx="0.600000"
         dy="0.800000"
         id="feOffset50" />
      <feComposite
         result="comp1"
         operator="in"
         in="flood"
         in2="offset"
         id="feComposite50" />
      <feComposite
         result="comp2"
         operator="over"
         in="SourceGraphic"
         in2="comp1"
         id="feComposite51" />
    </filter>
    <radialGradient
       inkscape:collect="always"
       xlink:href="#linearGradient23"
       id="radialGradient24-1"
       cx="93.295601"
       cy="126.23416"
       fx="93.295601"
       fy="126.23416"
       r="34.228825"
       gradientUnits="userSpaceOnUse"
       gradientTransform="matrix(0.2183072,0,0,0.2183072,70.035788,60.993776)" />
    <filter
       style="color-interpolation-filters:sRGB"
       inkscape:label="Drop Shadow"
       id="filter51-8"
       x="-0.12847071"
       y="-0.12847251"
       width="1.2970885"
       height="1.3104752">
      <feFlood
         result="flood"
         in="SourceGraphic"
         flood-opacity="0.764706"
         flood-color="rgb(78,78,78)"
         id="feFlood50-7" />
      <feGaussianBlur
         result="blur"
         in="SourceGraphic"
         stdDeviation="0.800000"
         id="feGaussianBlur50-4" />
      <feOffset
         result="offset"
         in="blur"
         dx="0.600000"
         dy="0.800000"
         id="feOffset50-2" />
      <feComposite
         result="comp1"
         operator="in"
         in="flood"
         in2="offset"
         id="feComposite50-7" />
      <feComposite
         result="comp2"
         operator="over"
         in="SourceGraphic"
         in2="comp1"
         id="feComposite51-7" />
    </filter>
  </defs>
  <g
     id="g36"
     inkscape:label="Cloud"
     inkscape:export-filename="light-snow.svg"
     inkscape:export-xdpi="96"
     inkscape:export-ydpi="96"
     transform="translate(-70.489013,-44.811646)">
    <path
       id="path2"
       style="display:inline;fill:url(#linearGradient12);stroke:url(#linearGradient41);stroke-width:0.264999;stroke-opacity:1;filter:url(#filter11)"
       d="m 57.750428,38.579961 c -6.988808,1.718521 -10.25228,5.637797 -12.40423,8.973719 -1.131734,1.754396 -3.311163,2.044999 -5.286042,1.423781 -3.157972,-0.993371 -7.384412,-1.094669 -10.972009,-1.09464 -9.135373,7.2e-5 -16.541037,7.553058 -16.541109,16.688431 7.1e-5,9.135373 7.405736,16.541038 16.541109,16.54111 h 16.784907 17.335491 c 11.966869,6e-6 21.667934,-9.701059 21.667928,-21.667928 5e-6,-9.985836 -7.249643,-18.886789 -16.190482,-21.14886 -2.945842,-0.745311 -7.976782,-0.443167 -10.935563,0.284387 z"
       sodipodi:nodetypes="scsccccss"
       inkscape:path-effect="#path-effect3"
       inkscape:original-d="M 63.208545,37.776506 C 49.179136,38.658641 46.037926,46.69205 43.354261,50.766503 40.575783,48.087397 34.186804,47.88278 29.088147,47.882821 c -9.135373,7.2e-5 -16.541037,7.553058 -16.541109,16.688431 7.1e-5,9.135373 7.405736,16.541038 16.541109,16.54111 h 16.784907 17.335491 c 11.966869,6e-6 21.667934,-9.701059 21.667928,-21.667928 6e-6,-11.966869 -10.411396,-22.375711 -21.667928,-21.667928 z"
       transform="translate(59.274471,8.2825739)" />
    <path
       id="path43"
       style="display:inline;fill:url(#linearGradient76);stroke:url(#linearGradient87);stroke-width:0.329178;filter:url(#filter86)"
       d="m 104.84896,74.26202 c -7.61902,7.22521 -36.86181,-5.74144 -30.69957,7.05791 1.76897,3.67426 7.44561,7.85058 11.65023,7.87762 l 30.69521,0.19739 c 3.78486,0.0243 8.30976,0.31905 12.48199,-0.9899 7.85548,-2.46449 14.75436,-8.81142 15.17412,-20.67803 5.5e-4,-9.14853 -24.93187,-7.09234 -39.30198,6.53501 z"
       sodipodi:nodetypes="ssssscs" />
  </g>
  <g
     inkscape:label="Layer 1"
     inkscape:groupmode="layer"
     id="layer1"
     transform="translate(-70.489013,-44.811646)">
    <path
       id="path23"
       style="fill:url(#radialGradient24);stroke-width:0.0218308;filter:url(#filter51)"
       d="m 90.402898,81.079635 c -0.42037,-0.0088 -0.80588,0.336865 -0.83934,0.757089 -6.5e-4,0.125756 -0.002,0.251496 -0.002,0.377252 0.53114,-0.0079 1.06538,0.01653 1.59597,0.0032 -0.76648,0.01914 -1.54066,-0.03962 -2.30196,0.03171 -0.65961,0.474404 0.16336,0.921975 0.66515,0.778528 0.0128,-3.08e-4 0.0256,-6.4e-4 0.0384,-7.91e-4 -0.002,1.161719 -2e-5,2.323707 3.3e-4,3.485482 -0.81835,-0.82302 -1.6401,-1.642892 -2.45967,-2.464742 0.16394,-0.168989 0.32329,-0.341736 0.47404,-0.521536 0.0619,-0.146633 0.0256,-0.327889 -0.0888,-0.438959 -0.0918,-0.07655 -0.17879,-0.10994 -0.26161,-0.112929 -0.26432,-0.0095 -0.48631,0.291361 -0.68861,0.492996 -0.21107,-0.248815 -0.52567,-0.438659 -0.8364,-0.448544 -0.20254,-0.0063 -0.40344,0.06366 -0.57309,0.243564 -0.30383,0.290649 -0.33257,0.807567 -0.0595,1.128694 0.0883,0.08947 0.17678,0.178915 0.26522,0.268277 -0.16482,0.169164 -0.3248,0.342298 -0.47517,0.52334 -0.13192,0.801715 0.76692,0.5374 1.02084,0.08145 0.009,-0.0093 0.0184,-0.01787 0.0273,-0.02705 0.82032,0.825416 1.64392,1.647748 2.4661,2.4714 -1.16297,-0.0016 -2.3261,7.91e-4 -3.4891,6.8e-4 -0.004,-0.235442 -0.0136,-0.470323 -0.0344,-0.704073 -0.0601,-0.147384 -0.21398,-0.249724 -0.37341,-0.24717 -0.50084,0.04603 -0.4037,0.565617 -0.40467,0.941089 -0.0417,-0.0032 -0.084,-0.0047 -0.12645,-0.004 -0.50286,0.0063 -1.02922,0.28063 -1.0116,0.857381 -0.009,0.420359 0.33686,0.805875 0.75709,0.839326 0.12575,6.57e-4 0.25149,7.91e-4 0.37725,0.0016 -0.008,-0.531137 0.0165,-1.065382 0.003,-1.595965 0.0191,0.766468 -0.0396,1.540679 0.0317,2.301951 0.47441,0.659621 0.92198,-0.163359 0.77853,-0.665148 -3.1e-4,-0.01281 -6.4e-4,-0.02554 -7.9e-4,-0.03835 1.1617,0.0024 2.32362,-8e-6 3.48537,-4.51e-4 -0.823,0.818354 -1.64279,1.640093 -2.46463,2.459672 0.0569,0.05512 0.11332,0.110802 0.16944,0.166847 -0.22292,-0.222623 -0.45066,-0.43941 -0.69098,-0.640886 -0.0412,-0.0174 -0.0852,-0.02705 -0.12962,-0.02934 -0.0148,-7.91e-4 -0.0297,-6.56e-4 -0.0444,1.11e-4 -0.0986,0.0055 -0.19547,0.0465 -0.26489,0.118006 -0.32252,0.386899 0.11301,0.686042 0.37737,0.952816 -0.40937,0.349099 -0.65733,0.97791 -0.20239,1.406897 0.29065,0.303824 0.80768,0.332554 1.1288,0.05947 0.0895,-0.08833 0.17893,-0.176795 0.26828,-0.265224 0.16917,0.164814 0.34231,0.324804 0.52334,0.47517 0.80172,0.131917 0.53729,-0.766927 0.0813,-1.02085 -0.009,-0.0089 -0.0185,-0.01764 -0.0278,-0.02649 0.82561,-0.82052 1.64821,-1.644386 2.47208,-2.466781 -0.002,1.162937 7.9e-4,2.326008 6.7e-4,3.488984 -0.2354,0.004 -0.47023,0.0136 -0.70395,0.0344 -0.14739,0.0601 -0.24973,0.213979 -0.24717,0.373408 0.046,0.500256 0.56583,0.402914 0.9412,0.403649 -0.0429,0.536847 0.22714,1.158197 0.85298,1.139077 0.42037,0.009 0.80576,-0.336863 0.83922,-0.757096 6.5e-4,-0.125748 7.9e-4,-0.251488 0.002,-0.377244 -0.30873,0.0047 -0.6185,-0.0016 -0.928,-0.0055 0.54629,0.0063 1.09347,0.02103 1.6341,-0.02966 0.57716,-0.415108 0.0192,-0.809663 -0.46547,-0.805717 -0.0692,6.57e-4 -0.13707,0.0093 -0.19979,0.0272 -0.0128,3.09e-4 -0.0256,6.33e-4 -0.0384,7.91e-4 0.002,-1.161711 9e-5,-2.323588 -2.3e-4,-3.48537 0.81835,0.823027 1.64011,1.642781 2.45967,2.464638 0.0668,-0.06888 0.13441,-0.137136 0.2025,-0.204988 -0.2351,0.234296 -0.46433,0.473407 -0.67654,0.726524 -0.0619,0.146626 -0.0256,0.327889 0.0888,0.43896 0.38695,0.32255 0.68613,-0.113024 0.95293,-0.377363 0.34911,0.409312 0.97782,0.657186 1.40678,0.202276 0.30383,-0.29065 0.33256,-0.807575 0.0595,-1.128703 -0.0883,-0.08945 -0.17679,-0.178914 -0.26522,-0.268269 0.16481,-0.169179 0.3248,-0.342313 0.47517,-0.523339 0.0618,-0.375805 -0.10288,-0.517401 -0.32141,-0.514767 -0.24766,0.0032 -0.56454,0.191204 -0.69944,0.433423 -0.009,0.0093 -0.0176,0.01851 -0.0265,0.02776 -0.82053,-0.825622 -1.64439,-1.648214 -2.46679,-2.47208 1.16294,0.0016 2.32601,-7.91e-4 3.48899,-6.8e-4 0.004,0.235402 0.0136,0.470236 0.0344,0.703954 0.0601,0.147385 0.21398,0.249732 0.37341,0.247178 0.50001,-0.04603 0.40267,-0.565878 0.40331,-0.9412 0.53692,0.04302 1.15854,-0.22702 1.13941,-0.852983 0.009,-0.420367 -0.33697,-0.805764 -0.7572,-0.839216 -0.12571,-6.56e-4 -0.25142,-7.91e-4 -0.37714,-0.0016 v 1.11e-4 c 0.008,0.531145 -0.0165,1.065413 -0.003,1.595973 -0.0191,-0.766484 0.0396,-1.540774 -0.0317,-2.30207 -0.11861,-0.164902 -0.23551,-0.237159 -0.34194,-0.244917 -0.01,-6.56e-4 -0.0199,-7.9e-4 -0.0297,-4.5e-4 -0.30337,0.01186 -0.51114,0.546051 -0.40691,0.910626 3e-4,0.01281 6.3e-4,0.02562 7.9e-4,0.03843 -1.16172,-0.0024 -2.32357,-4.8e-5 -3.48537,2.21e-4 0.82299,-0.818354 1.64268,-1.6401 2.46452,-2.459664 -0.39866,-0.386773 -0.7766,-0.798734 -1.17642,-1.184091 0.5693,0.548717 1.09404,1.151707 1.69807,1.658131 0.14663,0.06192 0.32789,0.02562 0.43896,-0.08879 0.32255,-0.386955 -0.11312,-0.686137 -0.37748,-0.952935 0.40933,-0.349107 0.65731,-0.977815 0.20239,-1.406786 -0.16349,-0.170896 -0.3986,-0.254778 -0.63018,-0.24683 -0.1801,0.0063 -0.35802,0.06793 -0.49852,0.187384 -0.0895,0.08835 -0.17888,0.176764 -0.26827,0.265217 0.38049,0.37068 0.74075,0.765962 1.12486,1.132198 -0.55491,-0.529089 -1.06012,-1.118802 -1.64831,-1.607361 -0.0501,-0.0082 -0.096,-0.01242 -0.13797,-0.01297 -0.62987,-0.009 -0.37083,0.795768 0.0566,1.03382 0.009,0.0089 0.0183,0.01811 0.0275,0.02697 -0.82553,0.820425 -1.64808,1.644046 -2.47185,2.466323 0.002,-1.162929 -7.9e-4,-2.326009 -5.7e-4,-3.488977 0.23541,-0.004 0.47024,-0.0136 0.70396,-0.0344 0.14738,-0.0601 0.24973,-0.213979 0.24717,-0.373416 -0.0313,-0.340091 -0.28301,-0.403325 -0.55888,-0.409169 -0.13086,-0.0032 -0.26149,0.0047 -0.38232,0.0047 0.0425,-0.536617 -0.22754,-1.157164 -0.85298,-1.138058 z m 0.26466,6.841229 c -0.0188,0.01914 -0.0365,0.03938 -0.0532,0.0605 0.0167,-0.02111 0.0344,-0.04128 0.0532,-0.0605 z m -0.0687,0.08202 c -0.0109,0.01479 -0.0219,0.02942 -0.0318,0.04492 0.01,-0.0155 0.0209,-0.03013 0.0318,-0.04492 z m -0.0442,0.06643 c -0.01,0.01621 -0.0195,0.03242 -0.0281,0.04927 0.009,-0.01692 0.0184,-0.03306 0.0281,-0.04927 z m -0.0403,0.07568 c -0.007,0.01574 -0.0148,0.03139 -0.0213,0.04761 0.006,-0.01621 0.0139,-0.03187 0.0213,-0.04761 z m -0.0326,0.07861 c -0.006,0.01558 -0.0113,0.03108 -0.0161,0.0469 0.005,-0.0159 0.0105,-0.0314 0.0161,-0.0469 z m 0.52785,0.07062 c -0.0274,0.0016 -0.0547,0.004 -0.0819,0.008 0.0272,-0.004 0.0545,-0.0071 0.0819,-0.008 z m -0.55301,0.01012 c -0.004,0.01503 -0.008,0.02989 -0.0114,0.04516 0.003,-0.01518 0.007,-0.03013 0.0114,-0.04516 z m 0.44054,0.004 c -0.0164,0.0032 -0.0327,0.0055 -0.0489,0.01004 0.0162,-0.004 0.0326,-0.0071 0.0489,-0.01004 z m -0.0853,0.02111 c -0.0147,0.0047 -0.0294,0.0085 -0.0439,0.01368 0.0145,-0.0055 0.0293,-0.0093 0.0439,-0.01368 z m -0.0724,0.02531 c -0.0161,0.0063 -0.0323,0.01273 -0.0481,0.02009 0.0158,-0.0071 0.032,-0.0136 0.0481,-0.02009 z m -0.30099,0.03155 c -0.002,0.01526 -0.006,0.03045 -0.007,0.04579 0.002,-0.01534 0.005,-0.03052 0.007,-0.04579 z m 0.22507,0.0024 c -0.0159,0.0081 -0.0319,0.01605 -0.0474,0.02507 0.0155,-0.0089 0.0315,-0.017 0.0474,-0.02507 z m -1.25956,0.0055 c -0.044,0.02697 -0.0875,0.05939 -0.12985,0.0977 0.0423,-0.03828 0.0858,-0.0707 0.12985,-0.0977 z m 1.18634,0.03598 c -0.0147,0.0091 -0.0294,0.01811 -0.0436,0.02799 0.0142,-0.0099 0.0289,-0.01882 0.0436,-0.02799 z m -0.16291,0.03764 c -0.002,0.01914 -0.004,0.0382 -0.005,0.05741 2.7e-4,-0.0079 6.6e-4,-0.01558 7.9e-4,-0.02333 6.9e-4,-0.01139 0.002,-0.0227 0.003,-0.03409 z m 0.0842,0.01645 c -0.0104,0.008 -0.0211,0.01574 -0.0312,0.02412 0.0102,-0.0084 0.0208,-0.01621 0.0312,-0.02412 z m -0.11653,0.04753 c 0.006,1.03e-4 0.0108,9.5e-5 0.0161,1.11e-4 0.004,0.004 0.007,0.0079 0.0113,0.01162 -1.1e-4,0.0055 -2.1e-4,0.01076 -2.3e-4,0.01613 0.008,-0.0081 0.0176,-0.01542 0.0264,-0.02325 -0.0127,0.01139 -0.0258,0.02246 -0.0379,0.03448 -0.006,-1.02e-4 -0.0107,-2.13e-4 -0.0161,-2.29e-4 0.002,0.0024 0.006,0.0055 0.008,0.0084 -0.008,-0.0085 -0.0161,-0.01677 -0.0243,-0.02491 0.002,0.0016 0.003,0.0032 0.005,0.0047 1.1e-4,-0.0055 10e-5,-0.01068 1.2e-4,-0.01605 0.004,-0.004 0.008,-0.0071 0.0115,-0.01131 z"
       inkscape:label="flake"
       transform="matrix(-0.88234212,0,0,0.88234212,200.11756,10.517655)" />
    <path
       id="path23-1"
       style="fill:url(#radialGradient24-1);stroke-width:0.0218308;filter:url(#filter51-8)"
       d="m 90.402898,81.079635 c -0.42037,-0.0088 -0.80588,0.336865 -0.83934,0.757089 -6.5e-4,0.125756 -0.002,0.251496 -0.002,0.377252 0.53114,-0.0079 1.06538,0.01653 1.59597,0.0032 -0.76648,0.01914 -1.54066,-0.03962 -2.30196,0.03171 -0.65961,0.474404 0.16336,0.921975 0.66515,0.778528 0.0128,-3.08e-4 0.0256,-6.4e-4 0.0384,-7.91e-4 -0.002,1.161719 -2e-5,2.323707 3.3e-4,3.485482 -0.81835,-0.82302 -1.6401,-1.642892 -2.45967,-2.464742 0.16394,-0.168989 0.32329,-0.341736 0.47404,-0.521536 0.0619,-0.146633 0.0256,-0.327889 -0.0888,-0.438959 -0.0918,-0.07655 -0.17879,-0.10994 -0.26161,-0.112929 -0.26432,-0.0095 -0.48631,0.291361 -0.68861,0.492996 -0.21107,-0.248815 -0.52567,-0.438659 -0.8364,-0.448544 -0.20254,-0.0063 -0.40344,0.06366 -0.57309,0.243564 -0.30383,0.290649 -0.33257,0.807567 -0.0595,1.128694 0.0883,0.08947 0.17678,0.178915 0.26522,0.268277 -0.16482,0.169164 -0.3248,0.342298 -0.47517,0.52334 -0.13192,0.801715 0.76692,0.5374 1.02084,0.08145 0.009,-0.0093 0.0184,-0.01787 0.0273,-0.02705 0.82032,0.825416 1.64392,1.647748 2.4661,2.4714 -1.16297,-0.0016 -2.3261,7.91e-4 -3.4891,6.8e-4 -0.004,-0.235442 -0.0136,-0.470323 -0.0344,-0.704073 -0.0601,-0.147384 -0.21398,-0.249724 -0.37341,-0.24717 -0.50084,0.04603 -0.4037,0.565617 -0.40467,0.941089 -0.0417,-0.0032 -0.084,-0.0047 -0.12645,-0.004 -0.50286,0.0063 -1.02922,0.28063 -1.0116,0.857381 -0.009,0.420359 0.33686,0.805875 0.75709,0.839326 0.12575,6.57e-4 0.25149,7.91e-4 0.37725,0.0016 -0.008,-0.531137 0.0165,-1.065382 0.003,-1.595965 0.0191,0.766468 -0.0396,1.540679 0.0317,2.301951 0.47441,0.659621 0.92198,-0.163359 0.77853,-0.665148 -3.1e-4,-0.01281 -6.4e-4,-0.02554 -7.9e-4,-0.03835 1.1617,0.0024 2.32362,-8e-6 3.48537,-4.51e-4 -0.823,0.818354 -1.64279,1.640093 -2.46463,2.459672 0.0569,0.05512 0.11332,0.110802 0.16944,0.166847 -0.22292,-0.222623 -0.45066,-0.43941 -0.69098,-0.640886 -0.0412,-0.0174 -0.0852,-0.02705 -0.12962,-0.02934 -0.0148,-7.91e-4 -0.0297,-6.56e-4 -0.0444,1.11e-4 -0.0986,0.0055 -0.19547,0.0465 -0.26489,0.118006 -0.32252,0.386899 0.11301,0.686042 0.37737,0.952816 -0.40937,0.349099 -0.65733,0.97791 -0.20239,1.406897 0.29065,0.303824 0.80768,0.332554 1.1288,0.05947 0.0895,-0.08833 0.17893,-0.176795 0.26828,-0.265224 0.16917,0.164814 0.34231,0.324804 0.52334,0.47517 0.80172,0.131917 0.53729,-0.766927 0.0813,-1.02085 -0.009,-0.0089 -0.0185,-0.01764 -0.0278,-0.02649 0.82561,-0.82052 1.64821,-1.644386 2.47208,-2.466781 -0.002,1.162937 7.9e-4,2.326008 6.7e-4,3.488984 -0.2354,0.004 -0.47023,0.0136 -0.70395,0.0344 -0.14739,0.0601 -0.24973,0.213979 -0.24717,0.373408 0.046,0.500256 0.56583,0.402914 0.9412,0.403649 -0.0429,0.536847 0.22714,1.158197 0.85298,1.139077 0.42037,0.009 0.80576,-0.336863 0.83922,-0.757096 6.5e-4,-0.125748 7.9e-4,-0.251488 0.002,-0.377244 -0.30873,0.0047 -0.6185,-0.0016 -0.928,-0.0055 0.54629,0.0063 1.09347,0.02103 1.6341,-0.02966 0.57716,-0.415108 0.0192,-0.809663 -0.46547,-0.805717 -0.0692,6.57e-4 -0.13707,0.0093 -0.19979,0.0272 -0.0128,3.09e-4 -0.0256,6.33e-4 -0.0384,7.91e-4 0.002,-1.161711 9e-5,-2.323588 -2.3e-4,-3.48537 0.81835,0.823027 1.64011,1.642781 2.45967,2.464638 0.0668,-0.06888 0.13441,-0.137136 0.2025,-0.204988 -0.2351,0.234296 -0.46433,0.473407 -0.67654,0.726524 -0.0619,0.146626 -0.0256,0.327889 0.0888,0.43896 0.38695,0.32255 0.68613,-0.113024 0.95293,-0.377363 0.34911,0.409312 0.97782,0.657186 1.40678,0.202276 0.30383,-0.29065 0.33256,-0.807575 0.0595,-1.128703 -0.0883,-0.08945 -0.17679,-0.178914 -0.26522,-0.268269 0.16481,-0.169179 0.3248,-0.342313 0.47517,-0.523339 0.0618,-0.375805 -0.10288,-0.517401 -0.32141,-0.514767 -0.24766,0.0032 -0.56454,0.191204 -0.69944,0.433423 -0.009,0.0093 -0.0176,0.01851 -0.0265,0.02776 -0.82053,-0.825622 -1.64439,-1.648214 -2.46679,-2.47208 1.16294,0.0016 2.32601,-7.91e-4 3.48899,-6.8e-4 0.004,0.235402 0.0136,0.470236 0.0344,0.703954 0.0601,0.147385 0.21398,0.249732 0.37341,0.247178 0.50001,-0.04603 0.40267,-0.565878 0.40331,-0.9412 0.53692,0.04302 1.15854,-0.22702 1.13941,-0.852983 0.009,-0.420367 -0.33697,-0.805764 -0.7572,-0.839216 -0.12571,-6.56e-4 -0.25142,-7.91e-4 -0.37714,-0.0016 v 1.11e-4 c 0.008,0.531145 -0.0165,1.065413 -0.003,1.595973 -0.0191,-0.766484 0.0396,-1.540774 -0.0317,-2.30207 -0.11861,-0.164902 -0.23551,-0.237159 -0.34194,-0.244917 -0.01,-6.56e-4 -0.0199,-7.9e-4 -0.0297,-4.5e-4 -0.30337,0.01186 -0.51114,0.546051 -0.40691,0.910626 3e-4,0.01281 6.3e-4,0.02562 7.9e-4,0.03843 -1.16172,-0.0024 -2.32357,-4.8e-5 -3.48537,2.21e-4 0.82299,-0.818354 1.64268,-1.6401 2.46452,-2.459664 -0.39866,-0.386773 -0.7766,-0.798734 -1.17642,-1.184091 0.5693,0.548717 1.09404,1.151707 1.69807,1.658131 0.14663,0.06192 0.32789,0.02562 0.43896,-0.08879 0.32255,-0.386955 -0.11312,-0.686137 -0.37748,-0.952935 0.40933,-0.349107 0.65731,-0.977815 0.20239,-1.406786 -0.16349,-0.170896 -0.3986,-0.254778 -0.63018,-0.24683 -0.1801,0.0063 -0.35802,0.06793 -0.49852,0.187384 -0.0895,0.08835 -0.17888,0.176764 -0.26827,0.265217 0.38049,0.37068 0.74075,0.765962 1.12486,1.132198 -0.55491,-0.529089 -1.06012,-1.118802 -1.64831,-1.607361 -0.0501,-0.0082 -0.096,-0.01242 -0.13797,-0.01297 -0.62987,-0.009 -0.37083,0.795768 0.0566,1.03382 0.009,0.0089 0.0183,0.01811 0.0275,0.02697 -0.82553,0.820425 -1.64808,1.644046 -2.47185,2.466323 0.002,-1.162929 -7.9e-4,-2.326009 -5.7e-4,-3.488977 0.23541,-0.004 0.47024,-0.0136 0.70396,-0.0344 0.14738,-0.0601 0.24973,-0.213979 0.24717,-0.373416 -0.0313,-0.340091 -0.28301,-0.403325 -0.55888,-0.409169 -0.13086,-0.0032 -0.26149,0.0047 -0.38232,0.0047 0.0425,-0.536617 -0.22754,-1.157164 -0.85298,-1.138058 z m 0.26466,6.841229 c -0.0188,0.01914 -0.0365,0.03938 -0.0532,0.0605 0.0167,-0.02111 0.0344,-0.04128 0.0532,-0.0605 z m -0.0687,0.08202 c -0.0109,0.01479 -0.0219,0.02942 -0.0318,0.04492 0.01,-0.0155 0.0209,-0.03013 0.0318,-0.04492 z m -0.0442,0.06643 c -0.01,0.01621 -0.0195,0.03242 -0.0281,0.04927 0.009,-0.01692 0.0184,-0.03306 0.0281,-0.04927 z m -0.0403,0.07568 c -0.007,0.01574 -0.0148,0.03139 -0.0213,0.04761 0.006,-0.01621 0.0139,-0.03187 0.0213,-0.04761 z m -0.0326,0.07861 c -0.006,0.01558 -0.0113,0.03108 -0.0161,0.0469 0.005,-0.0159 0.0105,-0.0314 0.0161,-0.0469 z m 0.52785,0.07062 c -0.0274,0.0016 -0.0547,0.004 -0.0819,0.008 0.0272,-0.004 0.0545,-0.0071 0.0819,-0.008 z m -0.55301,0.01012 c -0.004,0.01503 -0.008,0.02989 -0.0114,0.04516 0.003,-0.01518 0.007,-0.03013 0.0114,-0.04516 z m 0.44054,0.004 c -0.0164,0.0032 -0.0327,0.0055 -0.0489,0.01004 0.0162,-0.004 0.0326,-0.0071 0.0489,-0.01004 z m -0.0853,0.02111 c -0.0147,0.0047 -0.0294,0.0085 -0.0439,0.01368 0.0145,-0.0055 0.0293,-0.0093 0.0439,-0.01368 z m -0.0724,0.02531 c -0.0161,0.0063 -0.0323,0.01273 -0.0481,0.02009 0.0158,-0.0071 0.032,-0.0136 0.0481,-0.02009 z m -0.30099,0.03155 c -0.002,0.01526 -0.006,0.03045 -0.007,0.04579 0.002,-0.01534 0.005,-0.03052 0.007,-0.04579 z m 0.22507,0.0024 c -0.0159,0.0081 -0.0319,0.01605 -0.0474,0.02507 0.0155,-0.0089 0.0315,-0.017 0.0474,-0.02507 z m -1.25956,0.0055 c -0.044,0.02697 -0.0875,0.05939 -0.12985,0.0977 0.0423,-0.03828 0.0858,-0.0707 0.12985,-0.0977 z m 1.18634,0.03598 c -0.0147,0.0091 -0.0294,0.01811 -0.0436,0.02799 0.0142,-0.0099 0.0289,-0.01882 0.0436,-0.02799 z m -0.16291,0.03764 c -0.002,0.01914 -0.004,0.0382 -0.005,0.05741 2.7e-4,-0.0079 6.6e-4,-0.01558 7.9e-4,-0.02333 6.9e-4,-0.01139 0.002,-0.0227 0.003,-0.03409 z m 0.0842,0.01645 c -0.0104,0.008 -0.0211,0.01574 -0.0312,0.02412 0.0102,-0.0084 0.0208,-0.01621 0.0312,-0.02412 z m -0.11653,0.04753 c 0.006,1.03e-4 0.0108,9.5e-5 0.0161,1.11e-4 0.004,0.004 0.007,0.0079 0.0113,0.01162 -1.1e-4,0.0055 -2.1e-4,0.01076 -2.3e-4,0.01613 0.008,-0.0081 0.0176,-0.01542 0.0264,-0.02325 -0.0127,0.01139 -0.0258,0.02246 -0.0379,0.03448 -0.006,-1.02e-4 -0.0107,-2.13e-4 -0.0161,-2.29e-4 0.002,0.0024 0.006,0.0055 0.008,0.0084 -0.008,-0.0085 -0.0161,-0.01677 -0.0243,-0.02491 0.002,0.0016 0.003,0.0032 0.005,0.0047 1.1e-4,-0.0055 10e-5,-0.01068 1.2e-4,-0.01605 0.004,-0.004 0.008,-0.0071 0.0115,-0.01131 z"
       inkscape:label="flake"
       transform="matrix(-1.1207944,0,0,1.1207944,193.41386,-15.834802)" />
  </g>
</svg>
