<?xml version="1.0" encoding="UTF-8" standalone="no"?>
<!-- Created with Inkscape (http://www.inkscape.org/) -->

<svg
   width="210mm"
   height="297mm"
   viewBox="0 0 210 297"
   version="1.1"
   id="svg1"
   inkscape:version="1.4.2 (f4327f4, 2025-05-13)"
   sodipodi:docname="snowflake.svg"
   xmlns:inkscape="http://www.inkscape.org/namespaces/inkscape"
   xmlns:sodipodi="http://sodipodi.sourceforge.net/DTD/sodipodi-0.dtd"
   xmlns:xlink="http://www.w3.org/1999/xlink"
   xmlns="http://www.w3.org/2000/svg"
   xmlns:svg="http://www.w3.org/2000/svg">
  <sodipodi:namedview
     id="namedview1"
     pagecolor="#505050"
     bordercolor="#eeeeee"
     borderopacity="1"
     inkscape:showpageshadow="0"
     inkscape:pageopacity="0"
     inkscape:pagecheckerboard="0"
     inkscape:deskcolor="#505050"
     inkscape:document-units="mm"
     inkscape:zoom="1.0167041"
     inkscape:cx="256.71186"
     inkscape:cy="460.80271"
     inkscape:window-width="1920"
     inkscape:window-height="1009"
     inkscape:window-x="-8"
     inkscape:window-y="-8"
     inkscape:window-maximized="1"
     inkscape:current-layer="layer1" />
  <defs
     id="defs1">
    <linearGradient
       id="linearGradient23"
       inkscape:collect="always">
      <stop
         style="stop-color:#c5ffff;stop-opacity:1;"
         offset="0.00169492"
         id="stop23" />
      <stop
         style="stop-color:#80f7f7;stop-opacity:1;"
         offset="1"
         id="stop24" />
    </linearGradient>
    <radialGradient
       inkscape:collect="always"
       xlink:href="#linearGradient23"
       id="radialGradient24"
       cx="93.295601"
       cy="126.23416"
       fx="93.295601"
       fy="126.23416"
       r="34.228825"
       gradientUnits="userSpaceOnUse" />
  </defs>
  <g
     inkscape:label="Layer 1"
     inkscape:groupmode="layer"
     id="layer1">
    <path
       id="path23"
       style="fill:url(#radialGradient24);stroke-width:0.1"
       d="M 93.295597 92.007304 C 91.37003 91.966934 89.604132 93.550374 89.450871 95.475309 C 89.447871 96.051341 89.445419 96.627319 89.443119 97.203369 C 91.8761 97.168669 94.323311 97.279145 96.753784 97.218355 C 93.242746 97.306175 89.696472 97.036707 86.209208 97.363566 C 83.187703 99.536667 86.95751 101.58687 89.256051 100.92976 C 89.31478 100.92835 89.37352 100.92685 89.432267 100.92562 C 89.422118 106.24709 89.432197 111.56982 89.433818 116.89157 C 85.68521 113.12154 81.920996 109.36597 78.166805 105.60131 C 78.917751 104.82724 79.647699 104.03594 80.338249 103.2123 C 80.621809 102.54064 80.455625 101.71034 79.931555 101.20157 C 79.510962 100.85098 79.112568 100.69797 78.733179 100.68429 C 77.522454 100.64069 76.505588 102.01893 75.578849 102.94255 C 74.61203 101.8028 73.170954 100.93319 71.747559 100.8879 C 70.819789 100.8584 69.899546 101.17943 69.122396 102.00359 C 67.730686 103.33497 67.599051 105.70283 68.850061 107.17382 C 69.254682 107.58362 69.659862 107.99335 70.064974 108.40269 C 69.309989 109.17759 68.57717 109.97068 67.888363 110.79996 C 67.284093 114.47237 71.401413 113.26164 72.564563 111.17306 C 72.605033 111.13071 72.649013 111.09128 72.68962 111.04904 C 76.447302 114.83002 80.219931 118.59689 83.986088 122.36979 C 78.658912 122.36079 73.330957 122.37389 68.003601 122.37289 C 67.986014 121.29441 67.941384 120.21848 67.845988 119.14777 C 67.570748 118.47265 66.865813 118.00385 66.135498 118.01554 C 63.841309 118.22651 64.286279 120.60646 64.281864 122.32638 C 64.090493 122.31132 63.897032 122.30449 63.702572 122.30675 C 61.399139 122.33415 58.988036 123.59223 59.068746 126.23416 C 59.028376 128.15972 60.611816 129.92562 62.536751 130.07888 C 63.112783 130.08188 63.688762 130.08363 64.264811 130.08663 C 64.230111 127.65365 64.340587 125.20644 64.279797 122.77597 C 64.3676 126.28693 64.098156 129.83336 64.425008 133.32054 C 66.598109 136.34205 68.648309 132.57224 67.991199 130.2737 C 67.989797 130.2151 67.98829 130.15662 67.987065 130.098 C 73.308417 130.1082 78.630854 130.09796 83.952498 130.09594 C 80.182572 133.84456 76.427373 137.60872 72.662748 141.36295 C 72.923174 141.61562 73.181845 141.87049 73.438928 142.12724 C 72.417749 141.10745 71.37454 140.11442 70.273747 139.1915 C 70.084842 139.1118 69.883337 139.06772 69.679985 139.05715 C 69.612195 139.05315 69.544158 139.05415 69.476379 139.05766 C 69.02452 139.08316 68.580998 139.27065 68.263017 139.5982 C 66.78566 141.3705 68.780669 142.74076 69.991593 143.96279 C 68.116424 145.56191 66.980581 148.44229 69.064518 150.40736 C 70.395898 151.79907 72.764272 151.9307 74.235262 150.67969 C 74.645023 150.27511 75.054831 149.86985 75.464128 149.46478 C 76.239083 150.21974 77.032148 150.9526 77.861397 151.64139 C 81.533807 152.24566 80.322564 148.12834 78.233984 146.96519 C 78.191622 146.92471 78.14911 146.88437 78.10686 146.84375 C 81.888757 143.08518 85.656833 139.31132 89.430717 135.54418 C 89.421917 140.87122 89.434817 146.19893 89.433818 151.52615 C 88.355487 151.54374 87.279836 151.58838 86.209208 151.68376 C 85.534088 151.959 85.065288 152.66394 85.076978 153.39425 C 85.287707 155.68577 87.668916 155.23989 89.388342 155.24324 C 89.192032 157.70238 90.42884 160.54858 93.295597 160.46101 C 95.221164 160.50141 96.986546 158.91794 97.139807 156.993 C 97.142807 156.41697 97.145159 155.84099 97.147559 155.26494 C 95.733352 155.28511 94.314391 155.25644 92.896655 155.24065 C 95.399049 155.26848 97.905507 155.33686 100.38199 155.10474 C 103.0258 153.20328 100.46999 151.39593 98.249817 151.41401 C 97.932653 151.41701 97.621945 151.45641 97.334627 151.53855 C 97.275896 151.53996 97.21716 151.54146 97.158411 151.54269 C 97.16866 146.22122 97.158815 140.899 97.157377 135.57725 C 100.90597 139.34727 104.6702 143.10233 108.42439 146.867 C 108.73053 146.55147 109.04008 146.23885 109.35198 145.92804 C 108.27502 147.00128 107.22503 148.09657 106.25295 149.25601 C 105.96939 149.92767 106.13557 150.75797 106.65964 151.26674 C 108.43215 152.74427 109.80261 150.74903 111.02475 149.53816 C 112.62391 151.41312 115.50383 152.54855 117.4688 150.46472 C 118.86051 149.13334 118.99214 146.76548 117.74113 145.29449 C 117.33655 144.88473 116.93129 144.47492 116.52622 144.06562 C 117.28118 143.29067 118.01404 142.4976 118.70283 141.66836 C 118.98608 139.94691 118.23158 139.29831 117.23057 139.31036 C 116.0961 139.32406 114.64456 140.18621 114.02663 141.29577 C 113.98615 141.33813 113.94581 141.38064 113.90519 141.42289 C 110.14662 137.64099 106.37276 133.87292 102.60562 130.09904 C 107.93266 130.10804 113.26037 130.09494 118.58759 130.09594 C 118.60518 131.17423 118.64982 132.24995 118.74521 133.32054 C 119.02045 133.99566 119.72538 134.46447 120.4557 134.45278 C 122.74609 134.24215 122.30023 131.86065 122.30313 130.14141 C 124.76263 130.33836 127.61005 129.1015 127.52245 126.23416 C 127.56285 124.30859 125.97886 122.54321 124.05393 122.38995 C 123.47807 122.38695 122.90226 122.38468 122.32638 122.38168 L 122.32638 122.38219 C 122.36108 124.8152 122.2506 127.26252 122.3114 129.69286 C 122.2236 126.18182 122.49305 122.63503 122.16619 119.14777 C 121.62291 118.39239 121.0874 118.06141 120.59987 118.02587 C 120.55417 118.02287 120.50877 118.0218 120.46396 118.0238 C 119.07429 118.0782 118.12256 120.52509 118.6 122.19513 C 118.6014 122.25389 118.6029 122.31256 118.60413 122.37134 C 113.28262 122.36107 107.96056 122.37113 102.6387 122.37238 C 106.40857 118.62373 110.16332 114.85956 113.92793 111.10536 C 112.10176 109.3337 110.37055 107.44663 108.53911 105.6814 C 111.14688 108.19493 113.5506 110.95705 116.31745 113.27681 C 116.98911 113.56037 117.81941 113.39418 118.32818 112.87011 C 119.80571 111.0976 117.81003 109.72714 116.59908 108.505 C 118.47408 106.90584 119.61 104.02593 117.52616 102.06095 C 116.77726 101.27812 115.70027 100.89388 114.63951 100.93027 C 113.81448 100.95857 112.99949 101.2413 112.35593 101.78862 C 111.94603 102.19334 111.53651 102.59832 111.12707 103.00353 C 112.86996 104.70148 114.52022 106.51216 116.27972 108.18978 C 113.73782 105.76617 111.42361 103.06488 108.72928 100.82692 C 108.49975 100.78912 108.28963 100.77019 108.09728 100.76749 C 105.21202 100.72619 106.39865 104.41267 108.35669 105.50312 C 108.39919 105.54373 108.4404 105.58588 108.48278 105.62663 C 104.70124 109.38475 100.93343 113.15752 97.159961 116.92413 C 97.168861 111.59708 97.156277 106.26939 97.157377 100.94216 C 98.235726 100.92457 99.311401 100.87993 100.38199 100.78455 C 101.05711 100.50931 101.52591 99.804371 101.51422 99.074056 C 101.37095 97.516187 100.21784 97.226526 98.954167 97.199752 C 98.354712 97.187054 97.756342 97.222149 97.202852 97.220422 C 97.397248 94.762334 96.160561 91.91978 93.295597 92.007304 z M 94.507926 123.34493 C 94.421684 123.43276 94.340478 123.52542 94.264014 123.62191 C 94.340525 123.52534 94.421634 123.43282 94.507926 123.34493 z M 94.193217 123.72061 C 94.143283 123.78819 94.092845 123.85528 94.047489 123.92629 C 94.092838 123.85529 94.143294 123.78817 94.193217 123.72061 z M 93.990645 124.02499 C 93.946241 124.09929 93.901527 124.17343 93.861971 124.25081 C 93.901523 124.17346 93.94625 124.09927 93.990645 124.02499 z M 93.80616 124.37174 C 93.772304 124.4437 93.73828 124.51573 93.708492 124.58981 C 93.73831 124.51568 93.772268 124.44376 93.80616 124.37174 z M 93.656816 124.73192 C 93.631063 124.80314 93.605004 124.87419 93.582918 124.9469 C 93.605021 124.87416 93.631042 124.80317 93.656816 124.73192 z M 96.074756 125.05542 C 95.949301 125.06092 95.823944 125.07328 95.699585 125.09211 C 95.824084 125.07324 95.949165 125.06093 96.074756 125.05542 z M 93.541577 125.10192 C 93.523387 125.17059 93.504364 125.23903 93.489384 125.30863 C 93.504386 125.23892 93.523354 125.17069 93.541577 125.10192 z M 95.559542 125.12053 C 95.484554 125.13487 95.409475 125.14761 95.335266 125.16652 C 95.409397 125.14764 95.484635 125.13486 95.559542 125.12053 z M 95.168868 125.21716 C 95.101689 125.23749 95.034098 125.2558 94.967847 125.27969 C 95.034079 125.25581 95.10171 125.23748 95.168868 125.21716 z M 94.837105 125.33292 C 94.763313 125.36241 94.689257 125.39119 94.616964 125.4249 C 94.689329 125.39116 94.763238 125.36243 94.837105 125.33292 z M 93.458378 125.47761 C 93.446062 125.54742 93.433394 125.61703 93.424272 125.68742 C 93.433394 125.61702 93.446059 125.54743 93.458378 125.47761 z M 94.489323 125.49001 C 94.416374 125.52701 94.343306 125.56363 94.272282 125.60474 C 94.3433 125.56365 94.416381 125.52699 94.489323 125.49001 z M 88.719649 125.5143 C 88.517728 125.63783 88.31879 125.78646 88.124854 125.96182 C 88.31879 125.78646 88.517728 125.63783 88.719649 125.5143 z M 94.153943 125.67915 C 94.086703 125.72089 94.019086 125.76205 93.953955 125.80731 C 94.019166 125.762 94.086618 125.72093 94.153943 125.67915 z M 93.407735 125.85175 C 93.399516 125.93933 93.390353 126.02687 93.387065 126.11478 C 93.388295 126.07908 93.3901 126.0434 93.392232 126.00781 C 93.395376 125.95562 93.40285 125.90379 93.407735 125.85175 z M 93.793241 125.9272 C 93.745267 125.9637 93.696658 125.99943 93.650098 126.03778 C 93.696689 125.99941 93.745232 125.96372 93.793241 125.9272 z M 93.259424 126.14476 C 93.284023 126.14523 93.308722 126.14518 93.333321 126.14527 C 93.350359 126.16313 93.367674 126.181 93.384998 126.1985 C 93.384514 126.22319 93.384058 126.24771 93.383964 126.2724 C 93.422724 126.23522 93.464863 126.20178 93.504887 126.16594 C 93.446535 126.2182 93.386892 126.26899 93.331254 126.32407 C 93.306856 126.3236 93.282272 126.3231 93.257874 126.32304 C 93.269992 126.33564 93.282069 126.34858 93.294047 126.36128 C 93.257709 126.32254 93.220559 126.28454 93.182943 126.24707 C 93.190679 126.25466 93.198553 126.26214 93.206197 126.26981 C 93.206676 126.24536 93.206622 126.22089 93.206714 126.19643 C 93.224474 126.17939 93.241939 126.16209 93.259424 126.14476 z "
       inkscape:label="flake" />
  </g>
</svg>
